# xmcd CD database file
#
# Track frame offsets:
#	150
#	10935
#	25110
#	46335
#	57960
#	70335
#	82635
#	95535
#	105960
#	117885
#
# Disc length: 1792 seconds
#
# Revision: 0
# Processed by: cddbd v1.4PL0 Copyright (c) Steve Scherf et al.
# Submitted via: CDex 1.40Beta9
#
DISCID=6d06fe0a
DTITLE=Johnny Winter - Roadrunner
DYEAR=1900
DGENRE=Blues
TTITLE0=Out of Sight
TTITLE1=Low Down Gal Of Mine
TTITLE2=Going Down Slow
TTITLE3=Avocado Green
TTITLE4=Parchman Farm
TTITLE5=Livin' in the Blues
TTITLE6=Leavin' Blues
TTITLE7=38-32-20
TTITLE8=Bad News
TTITLE9=Kind Hearted Woman
EXTD=ID3G: 0
EXTT0=
EXTT1=
EXTT2=
EXTT3=
EXTT4=
EXTT5=
EXTT6=
EXTT7=
EXTT8=
EXTT9=
PLAYORDER=
